<?xml version="1.0" encoding="UTF-8"?>
<svg xmlns="http://www.w3.org/2000/svg" xmlns:xlink="http://www.w3.org/1999/xlink" width="248px" height="90px" viewBox="0 0 247 90" version="1.1">
<defs>
<clipPath id="clip1">
  <path d="M 101.464844 63 L 246.484375 63 L 246.484375 69 L 101.464844 69 Z M 101.464844 63 "/>
</clipPath>
<clipPath id="clip2">
  <path d="M 101.824219 9.0625 L 246.121094 9.0625 L 246.121094 58.484375 L 101.824219 58.484375 Z M 101.824219 9.0625 "/>
</clipPath>
<clipPath id="clip3">
  <path d="M 101.464844 73.4375 L 186.1875 73.4375 L 186.1875 80.898438 L 101.464844 80.898438 Z M 101.464844 73.4375 "/>
</clipPath>
<clipPath id="clip4">
  <path d="M 0.214844 0 L 44 0 L 44 10 L 0.214844 10 Z M 0.214844 0 "/>
</clipPath>
<clipPath id="clip5">
  <path d="M 0.214844 16 L 44 16 L 44 27 L 0.214844 27 Z M 0.214844 16 "/>
</clipPath>
<clipPath id="clip6">
  <path d="M 0.214844 33 L 44 33 L 44 44 L 0.214844 44 Z M 0.214844 33 "/>
</clipPath>
<clipPath id="clip7">
  <path d="M 46 46 L 89.835938 46 L 89.835938 57 L 46 57 Z M 46 46 "/>
</clipPath>
<clipPath id="clip8">
  <path d="M 46 63 L 89.835938 63 L 89.835938 74 L 46 74 Z M 46 63 "/>
</clipPath>
<clipPath id="clip9">
  <path d="M 46 80 L 89.835938 80 L 89.835938 89.960938 L 46 89.960938 Z M 46 80 "/>
</clipPath>
<clipPath id="clip10">
  <path d="M 33 46 L 44 46 L 44 89.960938 L 33 89.960938 Z M 33 46 "/>
</clipPath>
<clipPath id="clip11">
  <path d="M 17 46 L 27 46 L 27 89.960938 L 17 89.960938 Z M 17 46 "/>
</clipPath>
<clipPath id="clip12">
  <path d="M 0.214844 46 L 9.980469 46 L 9.980469 89.960938 L 0.214844 89.960938 Z M 0.214844 46 "/>
</clipPath>
<clipPath id="clip13">
  <path d="M 80 0 L 89.835938 0 L 89.835938 44 L 80 44 Z M 80 0 "/>
</clipPath>
</defs>
<g id="surface1">
<g clip-path="url(#clip1)" clip-rule="nonzero">
<path style=" stroke:none;fill-rule:nonzero;fill:rgb(41.176471%,21.176471%,96.078431%);fill-opacity:1;" d="M 102.917969 63.730469 L 245.03125 63.730469 C 245.839844 63.730469 246.484375 64.382812 246.484375 65.1875 L 246.484375 66.738281 C 246.484375 67.539062 245.839844 68.195312 245.03125 68.195312 L 102.917969 68.195312 C 102.109375 68.195312 101.464844 67.539062 101.464844 66.738281 L 101.464844 65.1875 C 101.464844 64.382812 102.109375 63.730469 102.917969 63.730469 Z M 102.917969 63.730469 "/>
</g>
<g clip-path="url(#clip2)" clip-rule="nonzero">
<path style=" stroke:none;fill-rule:nonzero;fill:rgb(41.176471%,21.176471%,96.078431%);fill-opacity:1;" d="M 101.824219 17.910156 L 101.824219 9.0625 L 122.621094 9.0625 L 122.621094 17.910156 L 117.496094 17.910156 L 117.496094 32.101562 L 133.042969 18.484375 L 133.042969 9.0625 L 149.609375 9.0625 L 149.609375 18.554688 L 145.992188 18.554688 L 129.804688 32.519531 L 145.320312 48.28125 L 149.257812 48.28125 L 149.257812 57.84375 L 133.140625 57.84375 L 133.140625 48.28125 L 117.496094 32.578125 L 117.496094 49.023438 L 122.621094 49.023438 L 122.621094 57.84375 L 101.824219 57.84375 L 101.824219 49.023438 L 106.855469 49.023438 L 106.855469 17.910156 Z M 152.882812 17.910156 L 152.882812 9.0625 L 172.367188 9.0625 L 172.367188 17.910156 L 167.910156 17.910156 L 167.910156 38.15625 C 167.910156 39.992188 168.117188 41.5625 168.535156 42.84375 C 168.953125 44.132812 169.53125 45.1875 170.28125 46.007812 C 171.03125 46.816406 171.917969 47.402344 172.941406 47.78125 C 173.964844 48.164062 175.085938 48.351562 176.304688 48.351562 C 177.570312 48.351562 178.71875 48.183594 179.753906 47.859375 C 180.785156 47.546875 181.671875 46.992188 182.421875 46.203125 C 183.15625 45.421875 183.71875 44.375 184.121094 43.066406 C 184.507812 41.757812 184.703125 40.117188 184.703125 38.15625 L 184.703125 17.910156 L 179.546875 17.910156 L 179.546875 9.0625 L 199.03125 9.0625 L 199.03125 17.910156 L 195.160156 17.910156 L 195.160156 36.894531 C 195.160156 40.320312 194.664062 43.367188 193.691406 46.046875 C 192.695312 48.710938 191.339844 50.976562 189.625 52.8125 C 187.902344 54.65625 185.882812 56.0625 183.5625 57.03125 C 181.253906 58 178.769531 58.484375 176.117188 58.484375 C 173.496094 58.484375 171.03125 58.007812 168.742188 57.050781 C 166.460938 56.101562 164.460938 54.71875 162.765625 52.898438 C 161.070312 51.085938 159.734375 48.886719 158.75 46.296875 C 157.765625 43.691406 157.269531 40.75 157.269531 37.480469 L 157.269531 17.910156 Z M 213.230469 57.84375 L 213.230469 49.023438 L 218.257812 49.023438 L 218.257812 17.585938 L 212.371094 17.585938 L 212.371094 23.886719 L 201.914062 23.886719 L 201.914062 9.0625 L 246.121094 9.0625 L 246.121094 23.886719 L 235.605469 23.886719 L 235.605469 17.585938 L 228.910156 17.585938 L 228.910156 49.023438 L 234.027344 49.023438 L 234.027344 57.84375 Z M 213.230469 57.84375 "/>
</g>
<g clip-path="url(#clip3)" clip-rule="nonzero">
<path style=" stroke:none;fill-rule:nonzero;fill:rgb(73.333333%,51.764706%,90.980392%);fill-opacity:1;" d="M 105.5 77.421875 L 105.585938 75.476562 L 104.535156 74.289062 L 103.65625 74.070312 L 103.0625 74.238281 L 103.015625 78.378906 L 104.535156 78.535156 Z M 104.621094 73.632812 L 106.21875 75.34375 L 105.96875 77.910156 L 104.691406 79.1875 L 102.664062 79.042969 L 101.464844 79.070312 L 101.492188 78.820312 L 102.351562 78.625 L 102.378906 74.023438 L 101.824219 73.808594 L 101.855469 73.523438 L 102.644531 73.476562 Z M 107.535156 77.011719 L 107.546875 76.984375 L 109.417969 76.679688 L 109.191406 75.632812 L 108.65625 75.4375 L 107.613281 75.789062 Z M 108.042969 75.007812 L 109.164062 75.097656 L 109.808594 75.664062 L 110.039062 77.039062 L 107.535156 77.441406 L 107.964844 78.710938 L 108.910156 78.691406 L 110.03125 78.351562 L 110.089844 78.984375 L 107.839844 79.304688 L 106.863281 77.84375 L 106.972656 75.789062 Z M 114.660156 75.253906 L 114.554688 75.515625 L 114.125 75.585938 L 112.808594 79.226562 L 112.058594 79.210938 L 110.851562 75.382812 L 110.488281 75.273438 L 110.519531 75.058594 L 111.921875 75.039062 L 111.941406 75.265625 L 111.53125 75.410156 L 112.371094 78.554688 L 112.605469 78.507812 L 113.539062 75.382812 L 113.246094 75.164062 L 113.296875 74.980469 Z M 115.734375 77.011719 L 115.742188 76.984375 L 117.605469 76.679688 L 117.378906 75.632812 L 116.851562 75.4375 L 115.800781 75.789062 Z M 116.238281 75.007812 L 117.359375 75.097656 L 117.992188 75.664062 L 118.226562 77.039062 L 115.734375 77.441406 L 116.160156 78.710938 L 117.105469 78.691406 L 118.21875 78.351562 L 118.285156 78.984375 L 116.035156 79.304688 L 115.050781 77.84375 L 115.167969 75.789062 Z M 120.75 78.820312 L 120.789062 79.121094 L 119.105469 79.09375 L 119.085938 78.875 L 119.660156 78.710938 L 119.660156 73.90625 L 119.230469 73.992188 L 119.269531 73.46875 L 120.285156 73.4375 L 120.207031 78.703125 Z M 123.335938 75.515625 L 122.527344 75.449219 L 121.824219 76.367188 L 121.96875 77.9375 L 122.855469 78.78125 L 123.460938 78.78125 L 124.203125 77.304688 L 123.871094 75.917969 Z M 122.273438 74.914062 L 123.605469 74.914062 L 124.457031 75.703125 L 124.777344 77.53125 L 123.644531 79.304688 L 122.535156 79.355469 L 121.355469 77.929688 L 121.269531 76.101562 Z M 128.167969 77.929688 L 128.390625 77.128906 L 127.945312 75.839844 L 127.058594 75.710938 L 126.230469 76.015625 L 126.277344 78.085938 L 127.105469 78.40625 Z M 128.382812 75.203125 L 129.113281 77.265625 L 128.285156 78.71875 L 127 78.964844 L 126.191406 78.601562 L 126.230469 80.398438 L 126.765625 80.585938 L 126.734375 80.898438 L 125.128906 80.890625 L 125.089844 80.644531 L 125.585938 80.449219 L 125.535156 75.4375 L 125.265625 75.351562 L 125.535156 74.8125 L 126.230469 75.175781 L 126.179688 75.5 L 127.019531 75.1875 Z M 130.429688 77.011719 L 130.4375 76.984375 L 132.300781 76.679688 L 132.078125 75.632812 L 131.550781 75.4375 L 130.496094 75.789062 Z M 130.9375 75.007812 L 132.058594 75.097656 L 132.691406 75.664062 L 132.925781 77.039062 L 130.429688 77.441406 L 130.859375 78.710938 L 131.804688 78.691406 L 132.914062 78.351562 L 132.984375 78.984375 L 130.730469 79.304688 L 129.746094 77.84375 L 129.863281 75.789062 Z M 135.964844 75.15625 L 136.53125 75.828125 L 136.042969 76.242188 L 135.625 75.625 L 134.980469 75.839844 L 134.785156 76.269531 L 134.816406 78.671875 L 135.292969 78.820312 L 135.242188 79.101562 L 133.832031 79.101562 L 133.800781 78.886719 L 134.179688 78.730469 L 134.171875 75.527344 L 133.78125 75.304688 L 134.121094 74.863281 L 134.707031 75.242188 L 134.757812 75.515625 L 135.15625 75.351562 Z M 144.929688 78.75 L 145.507812 78.925781 L 145.46875 79.160156 L 143.769531 79.148438 L 143.761719 78.914062 L 144.425781 78.730469 L 144.523438 74.277344 L 144.425781 74.257812 L 142.730469 78.992188 L 142.28125 78.992188 L 140.703125 74.375 L 140.507812 74.394531 L 140.75 78.710938 L 141.246094 78.867188 L 141.296875 79.171875 L 139.648438 79.132812 L 139.628906 78.925781 L 140.097656 78.75 L 140.039062 73.847656 L 139.511719 73.664062 L 139.484375 73.476562 L 140.800781 73.546875 L 141.023438 73.90625 L 142.476562 78.261719 L 142.554688 78.242188 L 143.996094 73.78125 L 144.191406 73.507812 L 145.46875 73.507812 L 145.46875 73.757812 L 145.097656 73.847656 Z M 148.390625 77.03125 L 147.707031 77.050781 L 146.820312 77.65625 L 146.792969 78.554688 L 147.113281 78.71875 C 147.222656 78.710938 147.320312 78.710938 147.40625 78.703125 C 147.484375 78.703125 147.554688 78.691406 147.613281 78.679688 C 147.667969 78.671875 147.699219 78.664062 147.699219 78.652344 C 147.699219 78.652344 147.71875 78.640625 147.738281 78.601562 C 147.757812 78.574219 147.785156 78.535156 147.816406 78.484375 C 147.855469 78.429688 147.894531 78.378906 147.933594 78.3125 C 147.980469 78.25 148.019531 78.195312 148.070312 78.125 C 148.175781 77.976562 148.304688 77.804688 148.449219 77.617188 Z M 146.363281 75.476562 L 147.203125 74.890625 L 149.003906 75.3125 L 149.035156 78.601562 L 149.714844 78.652344 L 149.726562 79.023438 L 148.730469 79.121094 L 148.402344 78.417969 L 147.980469 79.070312 L 146.636719 79.328125 L 146.140625 78.730469 L 146.167969 77.507812 L 147.535156 76.621094 L 148.382812 76.503906 L 148.449219 75.632812 L 147.113281 75.460938 L 146.722656 76.140625 L 146.285156 75.671875 Z M 154.65625 78.066406 L 155.078125 78.554688 L 153.742188 79.226562 L 153.265625 78.984375 L 153.265625 76.554688 L 153.019531 75.820312 L 152.40625 75.75 L 151.488281 77.089844 L 151.488281 78.730469 L 151.929688 78.867188 L 151.859375 79.171875 L 150.410156 79.101562 L 150.339844 78.925781 L 150.769531 78.730469 L 150.769531 75.820312 L 150.234375 75.515625 L 150.652344 74.960938 L 151.382812 75.75 L 151.488281 76.492188 L 152.289062 75.214844 L 153.324219 75.265625 L 153.925781 76.367188 L 153.800781 78.507812 L 153.925781 78.613281 Z M 157.621094 77.03125 L 156.949219 77.050781 L 156.050781 77.65625 L 156.023438 78.554688 L 156.34375 78.71875 C 156.449219 78.710938 156.546875 78.710938 156.636719 78.703125 C 156.714844 78.703125 156.78125 78.691406 156.839844 78.679688 C 156.910156 78.671875 156.9375 78.664062 156.9375 78.652344 C 156.9375 78.652344 156.949219 78.640625 156.96875 78.601562 C 156.988281 78.574219 157.015625 78.535156 157.054688 78.484375 C 157.085938 78.429688 157.125 78.378906 157.164062 78.3125 C 157.210938 78.25 157.25 78.195312 157.296875 78.125 C 157.40625 77.976562 157.53125 77.804688 157.679688 77.617188 Z M 155.59375 75.476562 L 156.429688 74.890625 L 158.234375 75.3125 L 158.261719 78.601562 L 158.945312 78.652344 L 158.957031 79.023438 L 157.960938 79.121094 L 157.628906 78.417969 L 157.210938 79.070312 L 155.867188 79.328125 L 155.367188 78.730469 L 155.40625 77.507812 L 156.773438 76.621094 L 157.609375 76.503906 L 157.679688 75.632812 L 156.34375 75.460938 L 155.953125 76.140625 L 155.515625 75.671875 Z M 160.320312 75.839844 L 160.058594 76.414062 L 160.652344 77.246094 L 161.800781 77.441406 L 162.296875 76.492188 L 161.996094 75.75 L 160.867188 75.578125 Z M 160.554688 77.851562 L 160.261719 77.625 L 160.105469 78.523438 L 161.761719 78.613281 L 162.308594 78.671875 L 162.679688 79.796875 L 159.851562 80.507812 L 159.433594 79.5 L 159.988281 79.628906 L 160.027344 80.070312 L 162.046875 79.382812 L 161.929688 79.132812 L 159.695312 78.867188 L 159.480469 78.3125 L 159.8125 77.265625 L 159.519531 76.90625 L 159.539062 76.007812 L 160.339844 75.175781 L 161.65625 75.15625 L 161.8125 75.273438 L 162.84375 74.589844 L 162.933594 74.96875 L 162.191406 75.546875 L 162.375 75.683594 L 162.914062 76.347656 L 162.308594 77.882812 Z M 164.246094 77.011719 L 164.257812 76.984375 L 166.128906 76.679688 L 165.90625 75.632812 L 165.367188 75.4375 L 164.324219 75.789062 Z M 164.753906 75.007812 L 165.875 75.097656 L 166.519531 75.664062 L 166.753906 77.039062 L 164.246094 77.441406 L 164.6875 78.710938 L 165.621094 78.691406 L 166.742188 78.351562 L 166.800781 78.984375 L 164.550781 79.304688 L 163.574219 77.84375 L 163.683594 75.789062 Z M 174.121094 77.773438 L 174.472656 78.203125 L 173.476562 79.132812 L 172.824219 79.003906 L 172.746094 75.8125 L 172.257812 75.507812 L 171.117188 76.320312 L 171.175781 76.640625 L 171.253906 78.691406 L 171.65625 78.875 L 171.617188 79.070312 L 170.152344 79.109375 L 170.191406 78.90625 L 170.582031 78.710938 L 170.542969 76.007812 L 170.210938 75.488281 L 169.492188 75.839844 L 168.722656 76.601562 L 168.789062 78.691406 L 169.296875 78.867188 L 169.257812 79.148438 L 167.738281 79.132812 L 167.71875 78.914062 L 168.078125 78.769531 L 168.125 75.617188 L 167.523438 75.214844 L 167.875 74.617188 L 168.554688 75.164062 L 168.605469 75.976562 L 169.648438 75.148438 L 170.875 75.1875 L 171.019531 75.9375 L 172.289062 75.148438 L 173.125 75.292969 L 173.417969 75.9375 L 173.300781 78.5625 L 173.515625 78.585938 Z M 175.308594 77.011719 L 175.320312 76.984375 L 177.191406 76.679688 L 176.964844 75.632812 L 176.429688 75.4375 L 175.386719 75.789062 Z M 175.816406 75.007812 L 176.9375 75.097656 L 177.578125 75.664062 L 177.804688 77.039062 L 175.308594 77.441406 L 175.738281 78.710938 L 176.683594 78.691406 L 177.804688 78.351562 L 177.863281 78.984375 L 175.609375 79.304688 L 174.636719 77.84375 L 174.742188 75.789062 Z M 183.039062 78.066406 L 183.457031 78.554688 L 182.121094 79.226562 L 181.644531 78.984375 L 181.644531 76.554688 L 181.398438 75.820312 L 180.796875 75.75 L 179.878906 77.089844 L 179.878906 78.730469 L 180.308594 78.867188 L 180.242188 79.171875 L 178.789062 79.101562 L 178.71875 78.925781 L 179.148438 78.730469 L 179.148438 75.820312 L 178.613281 75.515625 L 179.03125 74.960938 L 179.761719 75.75 L 179.878906 76.492188 L 180.667969 75.214844 L 181.703125 75.265625 L 182.308594 76.367188 L 182.179688 78.507812 L 182.308594 78.613281 Z M 186.175781 78.4375 L 186.175781 78.875 L 184.871094 79.132812 L 184.246094 78.515625 L 184.246094 75.617188 L 183.867188 75.683594 L 183.554688 75.75 L 183.496094 75.371094 L 184.0625 75.1875 L 184.179688 75.1875 L 184.179688 74.433594 L 184.0625 74.179688 L 184.742188 74.179688 L 184.800781 74.875 L 184.800781 75.125 L 185.921875 74.992188 L 185.921875 75.617188 L 184.800781 75.566406 L 184.800781 78.203125 L 185.183594 78.625 Z M 186.175781 78.4375 "/>
</g>
<g clip-path="url(#clip4)" clip-rule="nonzero">
<path style=" stroke:none;fill-rule:nonzero;fill:rgb(73.333333%,51.764706%,90.980392%);fill-opacity:1;" d="M 0.214844 0 L 43.164062 0 L 43.164062 9.375 L 0.214844 9.375 Z M 0.214844 0 "/>
</g>
<g clip-path="url(#clip5)" clip-rule="nonzero">
<path style=" stroke:none;fill-rule:nonzero;fill:rgb(73.333333%,51.764706%,90.980392%);fill-opacity:1;" d="M 0.214844 16.867188 L 43.164062 16.867188 L 43.164062 26.242188 L 0.214844 26.242188 Z M 0.214844 16.867188 "/>
</g>
<g clip-path="url(#clip6)" clip-rule="nonzero">
<path style=" stroke:none;fill-rule:nonzero;fill:rgb(73.333333%,51.764706%,90.980392%);fill-opacity:1;" d="M 0.214844 33.742188 L 43.164062 33.742188 L 43.164062 43.105469 L 0.214844 43.105469 Z M 0.214844 33.742188 "/>
</g>
<g clip-path="url(#clip7)" clip-rule="nonzero">
<path style=" stroke:none;fill-rule:nonzero;fill:rgb(73.333333%,51.764706%,90.980392%);fill-opacity:1;" d="M 46.898438 46.855469 L 89.835938 46.855469 L 89.835938 56.230469 L 46.898438 56.230469 Z M 46.898438 46.855469 "/>
</g>
<g clip-path="url(#clip8)" clip-rule="nonzero">
<path style=" stroke:none;fill-rule:nonzero;fill:rgb(73.333333%,51.764706%,90.980392%);fill-opacity:1;" d="M 46.898438 63.71875 L 89.835938 63.71875 L 89.835938 73.09375 L 46.898438 73.09375 Z M 46.898438 63.71875 "/>
</g>
<g clip-path="url(#clip9)" clip-rule="nonzero">
<path style=" stroke:none;fill-rule:nonzero;fill:rgb(73.333333%,51.764706%,90.980392%);fill-opacity:1;" d="M 46.898438 80.59375 L 89.835938 80.59375 L 89.835938 89.960938 L 46.898438 89.960938 Z M 46.898438 80.59375 "/>
</g>
<g clip-path="url(#clip10)" clip-rule="nonzero">
<path style=" stroke:none;fill-rule:nonzero;fill:rgb(73.333333%,51.764706%,90.980392%);fill-opacity:1;" d="M 33.828125 46.855469 L 43.164062 46.855469 L 43.164062 89.960938 L 33.828125 89.960938 Z M 33.828125 46.855469 "/>
</g>
<g clip-path="url(#clip11)" clip-rule="nonzero">
<path style=" stroke:none;fill-rule:nonzero;fill:rgb(73.333333%,51.764706%,90.980392%);fill-opacity:1;" d="M 17.015625 46.855469 L 26.351562 46.855469 L 26.351562 89.960938 L 17.015625 89.960938 Z M 17.015625 46.855469 "/>
</g>
<g clip-path="url(#clip12)" clip-rule="nonzero">
<path style=" stroke:none;fill-rule:nonzero;fill:rgb(73.333333%,51.764706%,90.980392%);fill-opacity:1;" d="M 0.214844 46.855469 L 9.550781 46.855469 L 9.550781 89.960938 L 0.214844 89.960938 Z M 0.214844 46.855469 "/>
</g>
<g clip-path="url(#clip13)" clip-rule="nonzero">
<path style=" stroke:none;fill-rule:nonzero;fill:rgb(73.333333%,51.764706%,90.980392%);fill-opacity:1;" d="M 80.5 0 L 89.835938 0 L 89.835938 43.105469 L 80.5 43.105469 Z M 80.5 0 "/>
</g>
<path style=" stroke:none;fill-rule:nonzero;fill:rgb(73.333333%,51.764706%,90.980392%);fill-opacity:1;" d="M 63.699219 0 L 73.035156 0 L 73.035156 43.105469 L 63.699219 43.105469 Z M 63.699219 0 "/>
<path style=" stroke:none;fill-rule:nonzero;fill:rgb(73.333333%,51.764706%,90.980392%);fill-opacity:1;" d="M 46.898438 0 L 56.234375 0 L 56.234375 43.105469 L 46.898438 43.105469 Z M 46.898438 0 "/>
</g>
</svg>
